<?xml version="1.0" encoding="UTF-8" standalone="no"?><!DOCTYPE svg PUBLIC "-//W3C//DTD SVG 1.1//EN" "http://www.w3.org/Graphics/SVG/1.1/DTD/svg11.dtd"><svg width="100%" height="100%" viewBox="0 0 774 784" version="1.1" xmlns="http://www.w3.org/2000/svg" xmlns:xlink="http://www.w3.org/1999/xlink" xml:space="preserve" xmlns:serif="http://www.serif.com/" style="fill-rule:evenodd;clip-rule:evenodd;stroke-linejoin:round;stroke-miterlimit:1.41421;"><g><path d="M548.67,378.195l-305.417,0c-2.304,0 -4.172,-1.868 -4.172,-4.172l0,-53.737c0,-2.304 1.868,-4.172 4.172,-4.172l305.417,0c2.304,0 4.172,1.868 4.172,4.172l0,53.737c0,2.304 -1.868,4.172 -4.172,4.172Z" style="fill:url(#_Linear1);"/><path d="M530.774,541.103l-269.626,0c-1.948,0 -3.526,-1.579 -3.526,-3.527l0,-159.381l276.68,0l0,159.381c0,1.948 -1.58,3.527 -3.528,3.527Z" style="fill:url(#_Linear2);"/><path d="M531.302,387.195l-273.68,0c-4.971,0 -9,-4.03 -9,-9c0,-4.971 4.029,-9 9,-9l273.68,0c4.97,0 9,4.029 9,9c0,4.97 -4.03,9 -9,9Z" style="fill:#fcb239;fill-rule:nonzero;"/><path d="M530.302,546.099l-130.767,0c-4.971,0 -9,-4.029 -9,-9c0,-4.97 4.029,-9 9,-9l122.767,0l0,-145.985c0,-4.971 4.029,-9 9,-9c4.97,0 9,4.029 9,9l0,153.985c0,5.514 -4.487,10 -10,10Z" style="fill:#fcb239;fill-rule:nonzero;"/><path d="M321.971,256.339c-7.492,0 -13.121,2.459 -15.443,6.747c-2.899,5.35 -0.064,11.792 1.883,15.156c3.789,6.544 10.378,12.586 18.552,17.014c7.909,4.284 23.126,6.643 42.85,6.643c3.027,0 5.786,-0.056 8.12,-0.132c-6.657,-10.965 -20.768,-32.354 -33.296,-39.14c-7.486,-4.054 -15.536,-6.288 -22.666,-6.288Zm47.842,55.041c-15.049,0 -35.483,-1.351 -47.365,-7.787c-9.69,-5.249 -17.589,-12.565 -22.241,-20.6c-5.079,-8.772 -5.795,-17.446 -2.016,-24.422c4.032,-7.444 12.699,-11.713 23.78,-11.713c8.679,0 18.333,2.64 27.182,7.433c19.474,10.549 40.099,47.959 40.967,49.546c0.773,1.412 0.776,3.119 0.01,4.533c-0.767,1.415 -2.198,2.345 -3.802,2.469c-0.286,0.022 -7.092,0.541 -16.515,0.541Z" style="fill:#5a439b;fill-rule:nonzero;"/><path d="M393.966,301.765c2.342,0.077 5.11,0.134 8.143,0.134c19.725,0 34.943,-2.359 42.851,-6.643c15.867,-8.595 25.226,-23.326 20.436,-32.17c-2.323,-4.288 -7.952,-6.747 -15.443,-6.747c-7.131,0 -15.181,2.233 -22.667,6.289c-11.708,6.342 -25.704,26.602 -33.32,39.137Zm8.145,9.615c0,0 -0.001,0 -0.002,0c-9.421,0 -16.229,-0.519 -16.514,-0.541c-1.604,-0.124 -3.035,-1.054 -3.802,-2.469c-0.766,-1.414 -0.763,-3.121 0.01,-4.533c0.868,-1.587 21.493,-38.997 40.968,-49.546c8.848,-4.793 18.502,-7.433 27.182,-7.433c11.08,0 19.747,4.269 23.779,11.713c7.488,13.822 -3.168,33.599 -24.256,45.022c-11.882,6.436 -32.315,7.787 -47.365,7.787Z" style="fill:#5a439b;fill-rule:nonzero;"/><path d="M385.961,222.078c-10.057,0 -18.553,14.091 -18.553,30.77c0,12.358 11.186,32.858 18.552,44.615c7.367,-11.764 18.556,-32.273 18.556,-44.615c0,-16.679 -8.497,-30.77 -18.555,-30.77Zm0,88.776c-1.555,0 -3.012,-0.763 -3.898,-2.042c-0.985,-1.424 -24.136,-35.111 -24.136,-55.964c0,-22.57 12.314,-40.25 28.034,-40.25c15.721,0 28.035,17.68 28.035,40.25c0,20.853 -23.151,54.54 -24.137,55.964c-0.885,1.279 -2.342,2.042 -3.898,2.042Z" style="fill:#5a439b;fill-rule:nonzero;"/><path d="M233.821,363.454l304.281,0l0,-52.6l-304.281,0l0,52.6Zm304.849,9.481l-305.417,0c-4.914,0 -8.912,-3.998 -8.912,-8.912l0,-53.737c0,-4.914 3.998,-8.912 8.912,-8.912l305.417,0c4.914,0 8.912,3.998 8.912,8.912l0,53.737c0,4.914 -3.998,8.912 -8.912,8.912Z" style="fill:#5a439b;fill-rule:nonzero;"/><path d="M252.362,526.363l267.2,0l0,-153.428l-267.2,0l0,153.428Zm268.412,9.481l-269.625,0c-4.559,0 -8.268,-3.709 -8.268,-8.268l0,-159.381c0,-2.618 2.122,-4.741 4.741,-4.741l276.68,0c2.618,0 4.74,2.123 4.74,4.741l0,159.381c0,4.559 -3.709,8.268 -8.268,8.268Z" style="fill:#5a439b;fill-rule:nonzero;"/><path d="M385.961,535.84c-2.618,0 -4.74,-2.122 -4.74,-4.741l0,-224.985c0,-2.618 2.122,-4.74 4.74,-4.74c2.619,0 4.741,2.122 4.741,4.74l0,224.985c0,2.619 -2.122,4.741 -4.741,4.741Z" style="fill:#5a439b;fill-rule:nonzero;"/><path d="M611.59,104.103l24.919,-6.23l6.23,-24.919c0.253,-1.01 1.688,-1.01 1.941,0l6.23,24.919l24.919,6.23c1.01,0.252 1.01,1.688 0,1.94l-24.919,6.23l-6.23,24.919c-0.253,1.01 -1.688,1.01 -1.941,0l-6.23,-24.919l-24.919,-6.23c-1.01,-0.252 -1.01,-1.688 0,-1.94Z" style="fill:url(#_Linear3);"/><path d="M99.957,65.511l22.027,13.215l22.026,-13.215c0.892,-0.536 1.907,0.479 1.372,1.372l-13.216,22.026l13.216,22.025c0.535,0.893 -0.48,1.908 -1.372,1.372l-22.026,-13.215l-22.027,13.215c-0.892,0.536 -1.908,-0.479 -1.372,-1.372l13.216,-22.025l-13.216,-22.026c-0.536,-0.893 0.48,-1.908 1.372,-1.372Z" style="fill:url(#_Linear4);"/><path d="M342.088,672.051l34.038,-8.509l8.51,-34.038c0.345,-1.38 2.306,-1.38 2.651,0l8.509,34.038l34.038,8.509c1.38,0.345 1.38,2.306 0,2.651l-34.038,8.51l-8.509,34.037c-0.345,1.38 -2.306,1.38 -2.651,0l-8.51,-34.037l-34.038,-8.51c-1.379,-0.345 -1.379,-2.306 0,-2.651Z" style="fill:url(#_Linear5);"/><path d="M622.405,214.519l17.939,-4.485l4.485,-17.94c0.182,-0.727 1.216,-0.727 1.397,0l4.485,17.94l17.939,4.485c0.727,0.181 0.727,1.215 0,1.397l-17.939,4.484l-4.485,17.939c-0.181,0.728 -1.215,0.728 -1.397,0l-4.485,-17.939l-17.939,-4.484c-0.727,-0.182 -0.727,-1.216 0,-1.397Z" style="fill:#b3d893;fill-rule:nonzero;"/><path d="M8.398,339.052l17.939,-4.485l4.485,-17.939c0.182,-0.727 1.215,-0.727 1.397,0l4.485,17.939l17.939,4.485c0.727,0.182 0.727,1.215 0,1.397l-17.939,4.485l-4.485,17.939c-0.182,0.727 -1.215,0.727 -1.397,0l-4.485,-17.939l-17.939,-4.485c-0.727,-0.182 -0.727,-1.215 0,-1.397Z" style="fill:#b3d893;fill-rule:nonzero;"/><path d="M166.331,699.75l17.939,-4.485l4.485,-17.939c0.182,-0.727 1.215,-0.727 1.397,0l4.485,17.939l17.939,4.485c0.727,0.182 0.727,1.215 0,1.397l-17.939,4.485l-4.485,17.939c-0.182,0.727 -1.215,0.727 -1.397,0l-4.485,-17.939l-17.939,-4.485c-0.727,-0.182 -0.727,-1.215 0,-1.397Z" style="fill:#b3d893;fill-rule:nonzero;"/><path d="M255.281,182.809l17.939,-4.485l4.485,-17.939c0.182,-0.727 1.215,-0.727 1.397,0l4.485,17.939l17.939,4.485c0.727,0.182 0.727,1.215 0,1.397l-17.939,4.485l-4.485,17.939c-0.182,0.727 -1.215,0.727 -1.397,0l-4.485,-17.939l-17.939,-4.485c-0.727,-0.182 -0.727,-1.215 0,-1.397Z" style="fill:#b3d893;fill-rule:nonzero;"/><path d="M700.105,605.779l-11.091,-44.362l-44.362,-11.091c-1.798,-0.449 -1.798,-3.005 0,-3.454l44.362,-11.091l11.091,-44.363c0.449,-1.797 3.005,-1.797 3.455,0l11.09,44.363l44.362,11.091c1.799,0.449 1.799,3.005 0,3.454l-44.362,11.091l-11.09,44.362c-0.45,1.798 -3.006,1.798 -3.455,0Z" style="fill:url(#_Linear6);"/><path d="M217.063,105.073l16.16,4.04c0.895,0.223 1.595,0.923 1.819,1.818l4.04,16.16l4.039,-16.16c0.224,-0.895 0.923,-1.595 1.819,-1.818l16.157,-4.04l-16.157,-4.04c-0.896,-0.224 -1.595,-0.923 -1.819,-1.818l-4.039,-16.16l-4.04,16.16c-0.224,0.895 -0.924,1.594 -1.819,1.818l-16.16,4.04Zm22.018,32.021c-1.562,0 -2.918,-1.059 -3.296,-2.574l-5.23,-20.921l-20.921,-5.23c-1.515,-0.378 -2.573,-1.734 -2.573,-3.296c0,-1.562 1.058,-2.917 2.573,-3.296l20.921,-5.23l5.23,-20.921c0.378,-1.515 1.734,-2.573 3.296,-2.573c1.562,0 2.918,1.058 3.297,2.572l5.23,20.922l20.92,5.23c1.515,0.378 2.574,1.734 2.574,3.296c0,1.563 -1.059,2.918 -2.575,3.296l-20.919,5.23l-5.23,20.921c-0.379,1.516 -1.735,2.574 -3.297,2.574Z" style="fill:#5a439b;fill-rule:nonzero;"/><path d="M662.863,281.839l18.1,4.525c0.716,0.179 1.275,0.738 1.455,1.455l4.524,18.101l4.526,-18.101c0.179,-0.717 0.739,-1.276 1.455,-1.455l18.098,-4.525l-18.098,-4.525c-0.716,-0.179 -1.276,-0.738 -1.455,-1.455l-4.525,-18.101l-4.525,18.101c-0.18,0.717 -0.739,1.276 -1.455,1.455l-18.1,4.525Zm24.08,31.521c-1.332,0 -2.487,-0.902 -2.811,-2.193l-5.304,-21.214l-21.212,-5.302c-1.292,-0.324 -2.194,-1.48 -2.194,-2.812c0,-1.332 0.902,-2.488 2.194,-2.811l21.212,-5.304l5.303,-21.21c0.324,-1.294 1.48,-2.196 2.812,-2.196c1.331,0 2.488,0.902 2.811,2.194l5.304,21.212l21.211,5.304c1.292,0.322 2.195,1.479 2.195,2.811c0,1.333 -0.903,2.489 -2.196,2.812l-21.21,5.302l-5.303,21.212c-0.325,1.293 -1.481,2.195 -2.812,2.195Z" style="fill:#5a439b;fill-rule:nonzero;"/><path d="M21.339,252.318l18.099,4.525c0.716,0.179 1.276,0.739 1.455,1.456l4.525,18.098l4.524,-18.098c0.18,-0.717 0.739,-1.277 1.456,-1.456l18.099,-4.525l-18.099,-4.525c-0.717,-0.179 -1.276,-0.738 -1.456,-1.455l-4.524,-18.099l-4.525,18.099c-0.179,0.717 -0.739,1.276 -1.455,1.455l-18.099,4.525Zm24.079,31.521c-1.333,0 -2.488,-0.903 -2.812,-2.195l-5.303,-21.211l-21.211,-5.303c-1.292,-0.324 -2.195,-1.479 -2.195,-2.812c0,-1.332 0.903,-2.488 2.195,-2.811l21.211,-5.304l5.303,-21.21c0.324,-1.293 1.479,-2.196 2.812,-2.196c1.332,0 2.488,0.903 2.811,2.195l5.303,21.211l21.211,5.304c1.293,0.323 2.196,1.479 2.196,2.811c0,1.333 -0.903,2.488 -2.196,2.812l-21.211,5.303l-5.302,21.211c-0.324,1.293 -1.48,2.195 -2.812,2.195Z" style="fill:#5a439b;fill-rule:nonzero;"/><path d="M481.896,743.854l12.295,14.03c0.488,0.555 0.628,1.334 0.368,2.025l-6.592,17.452l14.029,-12.296c0.557,-0.488 1.333,-0.629 2.025,-0.367l17.455,6.593l-12.299,-14.03c-0.488,-0.556 -0.628,-1.334 -0.367,-2.026l6.591,-17.452l-14.028,12.296c-0.558,0.487 -1.337,0.628 -2.025,0.367l-17.452,-6.592Zm3.489,40.146c-0.955,0 -1.853,-0.473 -2.4,-1.265c-0.544,-0.787 -0.66,-1.758 -0.318,-2.663l7.726,-20.454l-14.412,-16.442c-0.759,-0.866 -0.938,-2.053 -0.464,-3.098c0.619,-1.367 2.255,-2.057 3.668,-1.523l20.454,7.725l16.442,-14.411c0.531,-0.467 1.208,-0.725 1.903,-0.725c0.955,0 1.852,0.473 2.399,1.265c0.544,0.787 0.661,1.758 0.319,2.663l-7.726,20.454l14.412,16.442c0.759,0.867 0.937,2.054 0.465,3.099c-0.621,1.366 -2.255,2.057 -3.668,1.523l-20.455,-7.726l-16.442,14.411c-0.531,0.467 -1.208,0.725 -1.903,0.725Z" style="fill:#5a439b;fill-rule:nonzero;"/><path d="M368.815,128.28l8.15,-21.577l-15.203,-17.344c-0.616,-0.703 0.119,-1.762 0.993,-1.432l21.576,8.15l17.345,-15.203c0.703,-0.616 1.762,0.118 1.432,0.993l-8.15,21.576l15.203,17.344c0.616,0.703 -0.118,1.763 -0.993,1.432l-21.576,-8.149l-17.345,15.202c-0.703,0.616 -1.762,-0.118 -1.432,-0.992Z" style="fill:#5eccf5;fill-rule:nonzero;"/><path d="M692.113,603.289c-1.12,0 -2.139,-0.759 -2.424,-1.895l-10.726,-42.907l-42.907,-10.726c-1.939,-0.485 -3.242,-2.154 -3.243,-4.152c0,-2 1.302,-3.669 3.242,-4.154l42.908,-10.728l10.726,-42.907c0.485,-1.938 2.154,-3.241 4.152,-3.242c0.001,0 0.001,0 0.002,0c1.998,0 3.667,1.303 4.152,3.241l10.727,42.908l42.907,10.727c1.34,0.335 2.153,1.692 1.819,3.032c-0.335,1.34 -1.693,2.154 -3.032,1.82l-44.362,-11.091c-0.896,-0.225 -1.595,-0.924 -1.82,-1.82l-10.391,-41.571l-10.393,41.571c-0.224,0.896 -0.924,1.595 -1.819,1.82l-41.571,10.392l41.571,10.393c0.895,0.224 1.595,0.924 1.819,1.819l11.091,44.362c0.334,1.34 -0.479,2.698 -1.819,3.033c-0.203,0.051 -0.408,0.075 -0.609,0.075Z" style="fill:#5a439b;fill-rule:nonzero;"/><path d="M72.189,519.283l-11.091,-44.362l-44.363,-11.091c-1.797,-0.45 -1.797,-3.005 0,-3.455l44.363,-11.091l11.091,-44.362c0.449,-1.798 3.005,-1.798 3.454,0l11.091,44.362l44.362,11.091c1.799,0.45 1.799,3.005 0,3.455l-44.362,11.091l-11.091,44.362c-0.449,1.798 -3.005,1.798 -3.454,0Z" style="fill:#5eccf5;fill-rule:nonzero;"/><path d="M64.197,516.793c-1.12,0 -2.139,-0.759 -2.423,-1.895l-10.728,-42.907l-42.907,-10.726c-1.94,-0.487 -3.242,-2.156 -3.242,-4.156c0.001,-1.998 1.304,-3.666 3.243,-4.151l42.906,-10.727l10.728,-42.907c0.484,-1.938 2.153,-3.242 4.152,-3.242c1.999,0 3.668,1.304 4.153,3.242l10.727,42.907l42.907,10.727c1.339,0.335 2.154,1.692 1.819,3.032c-0.334,1.34 -1.692,2.156 -3.032,1.819l-44.362,-11.09c-0.896,-0.225 -1.595,-0.924 -1.819,-1.82l-10.393,-41.569l-10.393,41.569c-0.224,0.896 -0.923,1.595 -1.819,1.82l-41.571,10.392l41.571,10.393c0.896,0.224 1.595,0.924 1.819,1.819l11.092,44.362c0.335,1.34 -0.48,2.698 -1.819,3.033c-0.204,0.05 -0.408,0.075 -0.609,0.075Z" style="fill:#5a439b;fill-rule:nonzero;"/><path d="M70.705,201.13c5.029,5.029 13.183,5.029 18.211,0c5.029,-5.029 5.029,-13.182 0,-18.211c-5.028,-5.029 -13.182,-5.029 -18.211,0c-5.029,5.029 -5.029,13.182 0,18.211Z" style="fill:#b3d893;fill-rule:nonzero;"/><path d="M751.255,483.812c5.029,5.029 13.183,5.029 18.211,0c5.029,-5.029 5.029,-13.182 0,-18.211c-5.028,-5.029 -13.182,-5.029 -18.211,0c-5.029,5.029 -5.029,13.182 0,18.211Z" style="fill:#b3d893;fill-rule:nonzero;"/><path d="M428.772,753.8c5.029,5.029 13.182,5.029 18.211,0c5.029,-5.028 5.029,-13.182 0,-18.211c-5.029,-5.029 -13.182,-5.029 -18.211,0c-5.029,5.029 -5.029,13.183 0,18.211Z" style="fill:#b3d893;fill-rule:nonzero;"/><path d="M611.758,369.869c5.029,5.028 13.183,5.028 18.212,0c5.028,-5.029 5.028,-13.183 0,-18.212c-5.029,-5.029 -13.183,-5.029 -18.212,0c-5.029,5.029 -5.029,13.183 0,18.212Z" style="fill:url(#_Linear7);"/><path d="M504.679,33.01c0,-14.695 -11.913,-26.608 -26.608,-26.608c-14.695,0 -26.608,11.913 -26.608,26.608c0,14.695 11.913,26.608 26.608,26.608c14.695,0 26.608,-11.913 26.608,-26.608Z" style="fill:#b3d893;fill-rule:nonzero;"/><path d="M79.811,211.138c-3.81,0 -7.62,-1.451 -10.52,-4.351c-5.801,-5.8 -5.801,-15.239 0,-21.039c5.8,-5.8 15.239,-5.801 21.04,0c0.781,0.781 0.781,2.047 0,2.828c-0.781,0.781 -2.048,0.781 -2.829,0c-4.24,-4.24 -11.141,-4.241 -15.383,0c-4.241,4.241 -4.241,11.142 0,15.383c4.241,4.24 11.142,4.241 15.383,0c0.781,-0.781 2.048,-0.781 2.829,0c0.781,0.781 0.781,2.047 0,2.828c-2.9,2.9 -6.71,4.351 -10.52,4.351Z" style="fill:#5a439b;fill-rule:nonzero;"/><path d="M654.594,657.013c-4.9,0 -8.885,3.985 -8.885,8.883c0,4.9 3.985,8.885 8.885,8.885c4.898,0 8.884,-3.985 8.884,-8.885c0,-4.898 -3.986,-8.883 -8.884,-8.883Zm0,21.768c-7.105,0 -12.885,-5.78 -12.885,-12.885c0,-7.104 5.78,-12.883 12.885,-12.883c7.104,0 12.884,5.779 12.884,12.883c0,7.105 -5.78,12.885 -12.884,12.885Z" style="fill:#5a439b;fill-rule:nonzero;"/><path d="M478.07,178.202c-4.898,0 -8.883,3.986 -8.883,8.884c0,4.899 3.985,8.885 8.883,8.885c4.9,0 8.885,-3.986 8.885,-8.885c0,-4.898 -3.985,-8.884 -8.885,-8.884Zm0,21.769c-7.104,0 -12.883,-5.78 -12.883,-12.885c0,-7.104 5.779,-12.884 12.883,-12.884c7.105,0 12.885,5.78 12.885,12.884c0,7.105 -5.78,12.885 -12.885,12.885Z" style="fill:#5a439b;fill-rule:nonzero;"/><path d="M5.021,529.357c-0.563,0 -1.021,0.458 -1.021,1.022c0,0.563 0.458,1.022 1.021,1.022c0.564,0 1.022,-0.459 1.022,-1.022c0,-0.564 -0.458,-1.022 -1.022,-1.022Zm0,6.044c-2.769,0 -5.021,-2.253 -5.021,-5.022c0,-2.769 2.252,-5.022 5.021,-5.022c2.77,0 5.022,2.253 5.022,5.022c0,2.769 -2.252,5.022 -5.022,5.022Z" style="fill:#f7ee41;fill-rule:nonzero;"/><path d="M738.784,596.738c0,-3.338 -2.706,-6.044 -6.044,-6.044c-3.338,0 -6.044,2.706 -6.044,6.044c0,3.337 2.706,6.043 6.044,6.043c3.338,0 6.044,-2.706 6.044,-6.043Z" style="fill:#5eccf5;fill-rule:nonzero;"/><path d="M510.722,686.927c0,-3.338 -2.705,-6.044 -6.043,-6.044c-3.338,0 -6.044,2.706 -6.044,6.044c0,3.338 2.706,6.044 6.044,6.044c3.338,0 6.043,-2.706 6.043,-6.044Z" style="fill:#5eccf5;fill-rule:nonzero;"/><path d="M597.443,636.867c0,-3.338 -2.705,-6.044 -6.043,-6.044c-3.338,0 -6.044,2.706 -6.044,6.044c0,3.338 2.706,6.044 6.044,6.044c3.338,0 6.043,-2.706 6.043,-6.044Z" style="fill:#b3d893;fill-rule:nonzero;"/><path d="M21.431,427.398c0,-3.338 -2.706,-6.044 -6.044,-6.044c-3.338,0 -6.044,2.706 -6.044,6.044c0,3.338 2.706,6.044 6.044,6.044c3.338,0 6.044,-2.706 6.044,-6.044Z" style="fill:#b3d893;fill-rule:nonzero;"/><path d="M654.593,578.289c0,-5.006 -4.058,-9.065 -9.065,-9.065c-5.007,0 -9.066,4.059 -9.066,9.065c0,5.007 4.059,9.066 9.066,9.066c5.007,0 9.065,-4.059 9.065,-9.066Z" style="fill:#5eccf5;fill-rule:nonzero;"/><path d="M738.784,239.79c0,-5.007 -4.059,-9.066 -9.066,-9.066c-5.007,0 -9.065,4.059 -9.065,9.066c0,5.007 4.058,9.065 9.065,9.065c5.007,0 9.066,-4.058 9.066,-9.065Z" style="fill:url(#_Linear8);"/><path d="M297.304,9.578c0,-5.007 -4.059,-9.066 -9.066,-9.066c-5.007,0 -9.065,4.059 -9.065,9.066c0,5.007 4.058,9.066 9.065,9.066c5.007,0 9.066,-4.059 9.066,-9.066Z" style="fill:url(#_Linear9);"/><path d="M262.733,692.971c0,-5.007 -4.059,-9.066 -9.066,-9.066c-5.007,0 -9.066,4.059 -9.066,9.066c0,5.006 4.059,9.065 9.066,9.065c5.007,0 9.066,-4.059 9.066,-9.065Z" style="fill:#5eccf5;fill-rule:nonzero;"/><path d="M118.961,151.911c-0.563,0 -1.021,0.459 -1.021,1.022c0,0.564 0.458,1.022 1.021,1.022c0.564,0 1.022,-0.458 1.022,-1.022c0,-0.563 -0.458,-1.022 -1.022,-1.022Zm0,6.044c-2.769,0 -5.021,-2.253 -5.021,-5.022c0,-2.769 2.252,-5.022 5.021,-5.022c2.769,0 5.022,2.253 5.022,5.022c0,2.769 -2.253,5.022 -5.022,5.022Z" style="fill:#f7ee41;fill-rule:nonzero;"/><path d="M367.002,55.01c-0.563,0 -1.022,0.459 -1.022,1.022c0,0.564 0.459,1.022 1.022,1.022c0.564,0 1.022,-0.458 1.022,-1.022c0,-0.563 -0.458,-1.022 -1.022,-1.022Zm0,6.044c-2.769,0 -5.022,-2.253 -5.022,-5.022c0,-2.769 2.253,-5.022 5.022,-5.022c2.769,0 5.022,2.253 5.022,5.022c0,2.769 -2.253,5.022 -5.022,5.022Z" style="fill:#f7ee41;fill-rule:nonzero;"/><path d="M115.94,489.048c-0.564,0 -1.022,0.459 -1.022,1.022c0,0.564 0.458,1.022 1.022,1.022c0.563,0 1.021,-0.458 1.021,-1.022c0,-0.563 -0.458,-1.022 -1.021,-1.022Zm0,6.044c-2.769,0 -5.022,-2.253 -5.022,-5.022c0,-2.769 2.253,-5.022 5.022,-5.022c2.769,0 5.021,2.253 5.021,5.022c0,2.769 -2.252,5.022 -5.021,5.022Z" style="fill:#f7ee41;fill-rule:nonzero;"/><path d="M129.897,675.377c-0.563,0 -1.021,0.458 -1.021,1.021c0,0.564 0.458,1.023 1.021,1.023c0.564,0 1.023,-0.459 1.023,-1.023c0,-0.563 -0.459,-1.021 -1.023,-1.021Zm0,6.044c-2.768,0 -5.021,-2.253 -5.021,-5.023c0,-2.768 2.253,-5.021 5.021,-5.021c2.77,0 5.023,2.253 5.023,5.021c0,2.77 -2.253,5.023 -5.023,5.023Z" style="fill:#f7ee41;fill-rule:nonzero;"/><path d="M139.974,360.763c0,-11.605 -9.409,-21.012 -21.012,-21.012c-11.605,0 -21.013,9.407 -21.013,21.012c0,11.605 9.408,21.012 21.013,21.012c11.603,0 21.012,-9.407 21.012,-21.012Z" style="fill:#f7ee41;fill-rule:nonzero;"/><path d="M607.677,709.791c0,-11.605 -9.407,-21.013 -21.012,-21.013c-11.605,0 -21.012,9.408 -21.012,21.013c0,11.604 9.407,21.012 21.012,21.012c11.605,0 21.012,-9.408 21.012,-21.012Z" style="fill:#f7ee41;fill-rule:nonzero;"/><path d="M79.811,613.54c0,-5.462 -4.428,-9.89 -9.89,-9.89c-5.462,0 -9.89,4.428 -9.89,9.89c0,5.462 4.428,9.89 9.89,9.89c5.462,0 9.89,-4.428 9.89,-9.89Z" style="fill:#5eccf5;fill-rule:nonzero;"/><path d="M719.086,391.272c12.745,0 23.077,-10.332 23.077,-23.077c0,-12.745 -10.332,-23.078 -23.077,-23.078c-12.746,0 -23.078,10.333 -23.078,23.078c0,12.745 10.332,23.077 23.078,23.077Z" style="fill:#5eccf5;fill-rule:nonzero;"/><path d="M711.337,391.806c-6.307,0 -12.236,-2.456 -16.695,-6.916c-0.977,-0.976 -0.977,-2.559 0,-3.535c0.976,-0.976 2.558,-0.976 3.535,0c3.515,3.515 8.188,5.451 13.16,5.451c4.972,0 9.644,-1.936 13.16,-5.451c3.516,-3.515 5.451,-8.189 5.451,-13.16c0,-4.972 -1.935,-9.645 -5.451,-13.16c-3.516,-3.516 -8.188,-5.452 -13.16,-5.452c-4.972,0 -9.645,1.936 -13.16,5.451c-0.977,0.977 -2.559,0.976 -3.535,0.001c-0.977,-0.977 -0.977,-2.56 0,-3.536c4.459,-4.46 10.388,-6.916 16.695,-6.916c6.307,0 12.236,2.456 16.695,6.916c4.46,4.459 6.916,10.389 6.916,16.696c0,6.307 -2.456,12.236 -6.916,16.696c-4.459,4.459 -10.388,6.915 -16.695,6.915Z" style="fill:#5a439b;fill-rule:nonzero;"/><path d="M129.212,607.112c-9.012,9.012 -9.012,23.624 0,32.636c9.013,9.012 23.624,9.012 32.636,0c9.013,-9.012 9.013,-23.624 0,-32.636c-9.012,-9.012 -23.623,-9.012 -32.636,0Z" style="fill:#f7ee41;fill-rule:nonzero;"/><path d="M151.01,641.562c-13.02,0 -23.612,-10.591 -23.612,-23.611c0,-13.02 10.592,-23.611 23.612,-23.611c1.381,0 2.5,1.119 2.5,2.5c0,1.381 -1.119,2.5 -2.5,2.5c-10.263,0 -18.612,8.348 -18.612,18.611c0,10.263 8.349,18.611 18.612,18.611c10.262,0 18.611,-8.348 18.611,-18.611c0,-1.381 1.119,-2.5 2.5,-2.5c1.381,0 2.5,1.119 2.5,2.5c0,13.02 -10.592,23.611 -23.611,23.611Z" style="fill:#5a439b;fill-rule:nonzero;"/><path d="M493.296,48.836c-0.64,0 -1.279,-0.244 -1.768,-0.733c-0.976,-0.976 -0.976,-2.559 0,-3.535c3.595,-3.595 5.575,-8.374 5.575,-13.458c0,-5.083 -1.98,-9.863 -5.575,-13.458c-3.594,-3.594 -8.374,-5.574 -13.458,-5.574c-5.083,0 -9.863,1.98 -13.458,5.574c-7.42,7.421 -7.42,19.496 0,26.916c0.977,0.976 0.977,2.559 0,3.535c-0.976,0.977 -2.558,0.977 -3.535,0c-9.369,-9.369 -9.369,-24.616 0,-33.986c4.539,-4.539 10.574,-7.039 16.993,-7.039c6.42,0 12.455,2.5 16.993,7.039c4.54,4.539 7.04,10.574 7.04,16.993c0,6.42 -2.5,12.455 -7.04,16.993c-0.488,0.489 -1.127,0.733 -1.767,0.733Z" style="fill:#5a439b;fill-rule:nonzero;"/><path d="M264.356,728.909c-10.392,10.391 -10.392,27.239 0,37.63c10.391,10.391 27.238,10.391 37.629,0c10.391,-10.391 10.391,-27.239 0,-37.63c-10.391,-10.391 -27.238,-10.391 -37.629,0Z" style="fill:#b3d893;fill-rule:nonzero;"/><path d="M281.827,773.099c-13.251,0 -24.032,-10.781 -24.032,-24.032c0,-13.251 10.781,-24.032 24.032,-24.032c1.381,0 2.5,1.119 2.5,2.5c0,1.381 -1.119,2.5 -2.5,2.5c-10.494,0 -19.032,8.538 -19.032,19.032c0,10.494 8.538,19.032 19.032,19.032c10.495,0 19.032,-8.538 19.032,-19.032c0,-1.381 1.12,-2.5 2.5,-2.5c1.381,0 2.5,1.119 2.5,2.5c0,13.251 -10.78,24.032 -24.032,24.032Z" style="fill:#5a439b;fill-rule:nonzero;"/><path d="M306.336,511.614l-12,0c-0.524,0 -1.028,-0.085 -1.5,-0.242c-0.472,0.157 -0.976,0.242 -1.5,0.242l-11.933,0c-0.069,0 -0.204,-0.003 -0.273,-0.006c-2.429,-0.106 -4.352,-2.022 -4.522,-4.389c-0.593,-0.792 -0.945,-1.776 -0.945,-2.841l0,-12c0,-0.525 0.085,-1.029 0.242,-1.5c-0.157,-0.472 -0.242,-0.976 -0.242,-1.5l0,-12c0,-0.525 0.085,-1.029 0.242,-1.5c-0.157,-0.472 -0.242,-0.976 -0.242,-1.5l0,-10.75c0,-2.618 2.122,-4.74 4.74,-4.74c2.618,0 4.741,2.122 4.741,4.74l0,10.75c0,0.524 -0.085,1.028 -0.243,1.5c0.158,0.471 0.243,0.975 0.243,1.5l0,12c0,0.524 -0.085,1.028 -0.243,1.5c0.158,0.471 0.243,0.975 0.243,1.5l0,9.756l8.192,0c0.524,0 1.028,0.085 1.5,0.242c0.472,-0.157 0.976,-0.242 1.5,-0.242l12,0c2.618,0 4.74,2.122 4.74,4.74c0,2.618 -2.122,4.74 -4.74,4.74Z" style="fill:#fff;fill-rule:nonzero;"/><path d="M324.954,511.614l-5.618,0c-2.618,0 -4.74,-2.122 -4.74,-4.74c0,-2.618 2.122,-4.74 4.74,-4.74l5.618,0c2.618,0 4.74,2.122 4.74,4.74c0,2.618 -2.122,4.74 -4.74,4.74Z" style="fill:#fff;fill-rule:nonzero;"/><path d="M288.14,342.259l-3,0c-0.524,0 -1.028,-0.085 -1.5,-0.242c-0.472,0.157 -0.975,0.242 -1.5,0.242l-20,0c-2.618,0 -4.74,-2.122 -4.74,-4.74c0,-2.618 2.122,-4.74 4.74,-4.74l20,0c0.525,0 1.028,0.085 1.5,0.242c0.472,-0.157 0.976,-0.242 1.5,-0.242l3,0c2.618,0 4.74,2.122 4.74,4.74c0,2.618 -2.122,4.74 -4.74,4.74Zm26.196,0l-0.196,0c-0.524,0 -1.028,-0.085 -1.5,-0.242c-0.472,0.157 -0.975,0.242 -1.5,0.242l-3,0c-2.618,0 -4.74,-2.122 -4.74,-4.74c0,-2.618 2.122,-4.74 4.74,-4.74l3,0c0.525,0 1.028,0.085 1.5,0.242c0.472,-0.157 0.976,-0.242 1.5,-0.242l0.196,0c2.618,0 4.74,2.122 4.74,4.74c0,2.618 -2.122,4.74 -4.74,4.74Z" style="fill:#fff;fill-rule:nonzero;"/><path d="M140.229,124.462c-0.512,0 -1.024,-0.196 -1.415,-0.586l-0.772,-0.773c-0.781,-0.78 -0.781,-2.047 0,-2.828c0.78,-0.781 2.048,-0.781 2.828,0l0.773,0.773c0.781,0.78 0.781,2.047 0,2.828c-0.391,0.39 -0.903,0.586 -1.414,0.586Zm39.39,39.39c-0.512,0 -1.024,-0.195 -1.414,-0.586l-15.447,-15.447c-0.134,-0.134 -0.245,-0.282 -0.333,-0.439c-0.158,-0.088 -0.306,-0.199 -0.44,-0.333l-7.723,-7.724c-0.782,-0.781 -0.782,-2.047 0,-2.828c0.78,-0.781 2.048,-0.781 2.828,0l7.723,7.724c0.135,0.133 0.246,0.281 0.333,0.439c0.158,0.088 0.306,0.199 0.44,0.333l15.447,15.447c0.781,0.781 0.781,2.048 0,2.828c-0.39,0.391 -0.902,0.586 -1.414,0.586Zm8.496,8.496c-0.511,0 -1.024,-0.195 -1.414,-0.585l-0.772,-0.773c-0.782,-0.781 -0.782,-2.047 0,-2.828c0.78,-0.781 2.048,-0.781 2.828,0l0.772,0.772c0.782,0.781 0.782,2.048 0,2.829c-0.39,0.39 -0.902,0.585 -1.414,0.585Zm39.39,39.391c-0.511,0 -1.024,-0.196 -1.414,-0.586l-15.447,-15.448c-0.134,-0.133 -0.245,-0.281 -0.333,-0.439c-0.157,-0.088 -0.305,-0.199 -0.439,-0.333l-7.724,-7.723c-0.781,-0.781 -0.781,-2.048 0,-2.828c0.781,-0.782 2.048,-0.782 2.829,0l7.723,7.723c0.134,0.134 0.245,0.282 0.333,0.439c0.157,0.089 0.305,0.199 0.439,0.333l15.447,15.448c0.782,0.78 0.782,2.047 0,2.828c-0.39,0.39 -0.902,0.586 -1.414,0.586Zm8.496,8.496c-0.511,0 -1.023,-0.196 -1.414,-0.586l-0.772,-0.773c-0.781,-0.78 -0.781,-2.047 0,-2.828c0.78,-0.781 2.048,-0.781 2.828,0l0.773,0.773c0.781,0.78 0.781,2.047 0,2.828c-0.391,0.39 -0.903,0.586 -1.415,0.586Zm39.391,39.39c-0.512,0 -1.024,-0.195 -1.414,-0.586l-15.447,-15.447c-0.135,-0.134 -0.245,-0.282 -0.333,-0.439c-0.158,-0.088 -0.306,-0.199 -0.44,-0.333l-7.723,-7.724c-0.782,-0.781 -0.782,-2.047 0,-2.828c0.78,-0.781 2.048,-0.781 2.828,0l7.723,7.724c0.135,0.133 0.246,0.281 0.333,0.439c0.158,0.088 0.306,0.199 0.44,0.333l15.447,15.447c0.781,0.781 0.781,2.048 0,2.828c-0.39,0.391 -0.902,0.586 -1.414,0.586Z" style="fill:#5a439b;fill-rule:nonzero;"/><path d="M114.62,211.714c-0.62,0 -1.248,-0.164 -1.816,-0.511l-0.933,-0.567c-1.652,-1.005 -2.176,-3.159 -1.171,-4.81c1.004,-1.651 3.158,-2.177 4.809,-1.17l0.933,0.568c1.652,1.005 2.176,3.158 1.171,4.809c-0.659,1.083 -1.812,1.681 -2.993,1.681Zm47.58,28.971c-0.62,0 -1.248,-0.165 -1.817,-0.511l-18.658,-11.361c-0.159,-0.096 -0.307,-0.204 -0.444,-0.32c-0.167,-0.068 -0.33,-0.151 -0.489,-0.248l-9.33,-5.681c-1.651,-1.005 -2.175,-3.158 -1.169,-4.809c1.004,-1.651 3.156,-2.176 4.81,-1.169l9.329,5.68c0.158,0.097 0.307,0.204 0.444,0.32c0.166,0.069 0.33,0.151 0.489,0.248l18.659,11.362c1.651,1.005 2.174,3.158 1.169,4.809c-0.659,1.083 -1.812,1.68 -2.993,1.68Zm10.263,6.249c-0.621,0 -1.249,-0.165 -1.817,-0.511l-0.934,-0.569c-1.65,-1.006 -2.173,-3.159 -1.168,-4.81c1.005,-1.651 3.158,-2.173 4.81,-1.168l0.933,0.568c1.651,1.006 2.174,3.159 1.169,4.81c-0.66,1.082 -1.812,1.68 -2.993,1.68Zm47.58,28.971c-0.62,0 -1.248,-0.165 -1.816,-0.512l-18.66,-11.361c-0.158,-0.096 -0.306,-0.204 -0.444,-0.32c-0.166,-0.069 -0.33,-0.151 -0.488,-0.248l-9.33,-5.68c-1.651,-1.005 -2.174,-3.159 -1.169,-4.81c1.004,-1.651 3.157,-2.175 4.81,-1.169l9.329,5.681c0.159,0.096 0.307,0.203 0.445,0.32c0.166,0.068 0.329,0.151 0.488,0.248l18.659,11.361c1.651,1.005 2.175,3.159 1.169,4.809c-0.659,1.083 -1.811,1.681 -2.993,1.681Z" style="fill:#5a439b;fill-rule:nonzero;"/><path d="M133.97,304.166c-0.463,0 -0.934,-0.065 -1.4,-0.201l-20.975,-6.106c-0.178,-0.052 -0.35,-0.113 -0.517,-0.182c-0.178,-0.031 -0.355,-0.073 -0.532,-0.124l-10.487,-3.053c-2.652,-0.772 -4.176,-3.547 -3.404,-6.198c0.773,-2.653 3.549,-4.176 6.199,-3.404l10.487,3.054c0.178,0.051 0.351,0.112 0.518,0.181c0.177,0.031 0.354,0.073 0.531,0.124l20.975,6.107c2.651,0.772 4.175,3.546 3.403,6.198c-0.636,2.185 -2.632,3.604 -4.798,3.604Zm11.536,3.359c-0.463,0 -0.933,-0.065 -1.4,-0.201l-1.048,-0.305c-2.652,-0.772 -4.176,-3.546 -3.404,-6.198c0.771,-2.652 3.548,-4.174 6.198,-3.404l1.048,0.306c2.652,0.771 4.176,3.546 3.404,6.197c-0.636,2.185 -2.632,3.605 -4.798,3.605Zm53.486,15.572c-0.463,0 -0.933,-0.065 -1.401,-0.201l-20.974,-6.107c-0.177,-0.051 -0.349,-0.112 -0.515,-0.18c-0.178,-0.032 -0.356,-0.073 -0.534,-0.125l-10.487,-3.053c-2.651,-0.772 -4.175,-3.547 -3.403,-6.198c0.772,-2.652 3.55,-4.175 6.198,-3.404l10.487,3.054c0.178,0.051 0.349,0.111 0.516,0.18c0.178,0.032 0.356,0.073 0.534,0.125l20.974,6.107c2.652,0.772 4.175,3.547 3.403,6.199c-0.636,2.184 -2.632,3.603 -4.798,3.603Z" style="fill:#5a439b;fill-rule:nonzero;"/><path d="M181.374,426.514c-1.546,0 -2.96,-1.032 -3.379,-2.595c-0.5,-1.867 0.608,-3.787 2.475,-4.287l10.551,-2.827c0.18,-0.048 0.36,-0.082 0.54,-0.101c0.164,-0.072 0.336,-0.134 0.515,-0.182l21.101,-5.654c1.865,-0.501 3.786,0.607 4.287,2.475c0.5,1.867 -0.608,3.787 -2.475,4.287l-21.101,5.654c-0.18,0.048 -0.361,0.081 -0.54,0.101c-0.164,0.072 -0.336,0.133 -0.515,0.181l-10.551,2.827c-0.303,0.081 -0.609,0.121 -0.908,0.121Zm-22.156,5.937c-1.545,0 -2.959,-1.03 -3.379,-2.594c-0.501,-1.866 0.606,-3.786 2.473,-4.287l1.055,-0.283c1.865,-0.504 3.787,0.605 4.288,2.473c0.501,1.866 -0.606,3.786 -2.473,4.287l-1.055,0.283c-0.303,0.082 -0.609,0.121 -0.909,0.121Zm-43.259,11.591c-1.545,0 -2.959,-1.031 -3.378,-2.595c-0.5,-1.867 0.608,-3.787 2.475,-4.287l10.551,-2.827c0.18,-0.048 0.36,-0.081 0.539,-0.101c0.165,-0.072 0.336,-0.134 0.516,-0.181l21.101,-5.655c1.867,-0.499 3.786,0.609 4.287,2.475c0.5,1.867 -0.608,3.787 -2.475,4.287l-21.102,5.654c-0.18,0.048 -0.36,0.081 -0.539,0.101c-0.164,0.072 -0.336,0.134 -0.516,0.182l-10.55,2.827c-0.304,0.081 -0.609,0.12 -0.909,0.12Z" style="fill:#5a439b;fill-rule:nonzero;"/><path d="M184.727,486.879c-0.864,0 -1.705,-0.448 -2.167,-1.25c-0.691,-1.196 -0.281,-2.725 0.915,-3.415l9.459,-5.462c0.163,-0.094 0.331,-0.167 0.503,-0.222c0.133,-0.121 0.281,-0.23 0.443,-0.324l18.919,-10.923c1.195,-0.692 2.725,-0.28 3.415,0.915c0.69,1.195 0.281,2.725 -0.915,3.415l-18.919,10.923c-0.163,0.094 -0.331,0.167 -0.503,0.222c-0.133,0.121 -0.28,0.23 -0.443,0.324l-9.459,5.462c-0.394,0.227 -0.824,0.335 -1.248,0.335Zm-19.865,11.469c-0.864,0 -1.704,-0.449 -2.167,-1.25c-0.691,-1.197 -0.28,-2.725 0.915,-3.416l0.946,-0.545c1.195,-0.693 2.724,-0.281 3.415,0.915c0.69,1.196 0.28,2.724 -0.916,3.415l-0.946,0.546c-0.393,0.227 -0.823,0.335 -1.247,0.335Zm-38.784,22.393c-0.864,0 -1.704,-0.448 -2.167,-1.25c-0.691,-1.195 -0.281,-2.726 0.915,-3.416l9.459,-5.462c0.163,-0.094 0.332,-0.168 0.504,-0.222c0.132,-0.121 0.28,-0.23 0.442,-0.324l18.919,-10.923c1.196,-0.692 2.725,-0.28 3.415,0.915c0.691,1.196 0.281,2.725 -0.915,3.415l-18.919,10.923c-0.162,0.094 -0.331,0.168 -0.503,0.222c-0.133,0.122 -0.281,0.23 -0.443,0.325l-9.459,5.461c-0.394,0.228 -0.824,0.336 -1.248,0.336Zm-19.865,11.468c-0.864,0 -1.704,-0.448 -2.167,-1.25c-0.691,-1.196 -0.28,-2.725 0.915,-3.415l0.946,-0.546c1.195,-0.693 2.724,-0.28 3.415,0.915c0.69,1.196 0.28,2.725 -0.916,3.415l-0.946,0.546c-0.393,0.227 -0.823,0.335 -1.247,0.335Zm-28.378,16.385c-0.865,0 -1.705,-0.449 -2.168,-1.25c-0.69,-1.196 -0.281,-2.725 0.915,-3.415l18.919,-10.924c1.195,-0.693 2.725,-0.281 3.415,0.915c0.69,1.195 0.281,2.724 -0.915,3.415l-18.919,10.924c-0.393,0.227 -0.824,0.335 -1.247,0.335Z" style="fill:#5a439b;fill-rule:nonzero;"/><path d="M188.235,569.99c-1.284,0 -2.567,-0.491 -3.544,-1.473c-1.948,-1.958 -1.941,-5.123 0.017,-7.071l7.742,-7.705c0.131,-0.13 0.266,-0.251 0.407,-0.363c0.114,-0.141 0.236,-0.277 0.367,-0.407l15.484,-15.412c1.957,-1.948 5.123,-1.94 7.071,0.017c1.948,1.957 1.94,5.123 -0.017,7.071l-15.484,15.411c-0.131,0.13 -0.266,0.251 -0.407,0.364c-0.114,0.14 -0.236,0.277 -0.367,0.407l-7.742,7.705c-0.976,0.971 -2.252,1.456 -3.527,1.456Zm-16.258,16.181c-1.284,0 -2.567,-0.491 -3.544,-1.474c-1.948,-1.957 -1.94,-5.123 0.018,-7.071l0.774,-0.771c1.956,-1.946 5.123,-1.94 7.071,0.019c1.948,1.957 1.939,5.123 -0.018,7.071l-0.775,0.771c-0.975,0.969 -2.251,1.455 -3.526,1.455Z" style="fill:#5a439b;fill-rule:nonzero;"/><path d="M236.734,628.659c-0.339,0 -0.683,-0.086 -0.998,-0.268c-0.956,-0.552 -1.284,-1.776 -0.732,-2.732l5.462,-9.459c0.095,-0.164 0.209,-0.31 0.338,-0.435c0.045,-0.175 0.113,-0.347 0.208,-0.511l10.923,-18.919c0.551,-0.956 1.776,-1.284 2.732,-0.733c0.957,0.553 1.284,1.776 0.732,2.733l-10.923,18.919c-0.095,0.164 -0.209,0.309 -0.338,0.435c-0.045,0.175 -0.114,0.347 -0.208,0.511l-5.462,9.459c-0.37,0.642 -1.042,1 -1.734,1Zm-11.468,19.865c-0.339,0 -0.683,-0.086 -0.998,-0.267c-0.956,-0.552 -1.285,-1.776 -0.733,-2.732l0.546,-0.946c0.551,-0.958 1.773,-1.286 2.732,-0.733c0.957,0.551 1.285,1.775 0.733,2.731l-0.546,0.946c-0.37,0.643 -1.043,1.001 -1.734,1.001Zm-17.248,29.874c-0.34,0 -0.684,-0.086 -0.998,-0.267c-0.957,-0.553 -1.285,-1.776 -0.732,-2.733l0.317,-0.55c0.095,-0.164 0.209,-0.309 0.338,-0.435c0.045,-0.175 0.114,-0.347 0.208,-0.511l10.923,-18.919c0.551,-0.957 1.776,-1.285 2.732,-0.732c0.957,0.553 1.284,1.775 0.732,2.732l-10.923,18.919c-0.094,0.164 -0.209,0.31 -0.338,0.436c-0.045,0.175 -0.113,0.346 -0.208,0.51l-0.318,0.55c-0.37,0.642 -1.042,1 -1.733,1Z" style="fill:#5a439b;fill-rule:nonzero;"/><path d="M320.904,613.498c-0.214,0 -0.431,-0.028 -0.648,-0.086c-1.334,-0.357 -2.125,-1.729 -1.768,-3.062l2.826,-10.55c0.049,-0.182 0.117,-0.353 0.2,-0.513c0.007,-0.18 0.035,-0.361 0.083,-0.543l5.654,-21.102c0.358,-1.333 1.729,-2.123 3.062,-1.767c1.334,0.357 2.125,1.728 1.769,3.062l-5.655,21.102c-0.049,0.181 -0.116,0.351 -0.199,0.512c-0.008,0.179 -0.035,0.361 -0.083,0.542l-2.827,10.55c-0.299,1.118 -1.31,1.855 -2.414,1.855Zm-5.937,22.156c-0.214,0 -0.432,-0.028 -0.649,-0.086c-1.333,-0.357 -2.125,-1.728 -1.767,-3.062l0.283,-1.055c0.357,-1.333 1.728,-2.123 3.062,-1.768c1.333,0.358 2.125,1.729 1.767,3.063l-0.283,1.055c-0.299,1.116 -1.309,1.853 -2.413,1.853Zm-11.591,43.258c-0.214,0 -0.431,-0.028 -0.648,-0.086c-1.333,-0.357 -2.125,-1.728 -1.768,-3.061l2.827,-10.551c0.048,-0.182 0.116,-0.353 0.199,-0.513c0.008,-0.18 0.035,-0.361 0.083,-0.543l5.655,-21.102c0.357,-1.333 1.727,-2.124 3.062,-1.767c1.334,0.357 2.125,1.728 1.768,3.062l-5.655,21.102c-0.048,0.181 -0.116,0.352 -0.199,0.512c-0.008,0.179 -0.035,0.361 -0.083,0.542l-2.827,10.55c-0.299,1.118 -1.31,1.855 -2.414,1.855Z" style="fill:#5a439b;fill-rule:nonzero;"/><path d="M454.811,628.52c-2.208,0 -4.229,-1.472 -4.828,-3.707l-2.827,-10.55c-0.048,-0.179 -0.085,-0.358 -0.112,-0.537c-0.065,-0.168 -0.122,-0.34 -0.17,-0.518l-5.654,-21.102c-0.714,-2.667 0.868,-5.409 3.536,-6.124c2.672,-0.709 5.41,0.869 6.124,3.536l5.654,21.102c0.048,0.179 0.085,0.357 0.112,0.536c0.066,0.168 0.123,0.341 0.17,0.519l2.828,10.55c0.713,2.667 -0.869,5.41 -3.537,6.124c-0.433,0.116 -0.869,0.171 -1.296,0.171Zm5.936,22.157c-2.209,0 -4.229,-1.474 -4.827,-3.709l-0.282,-1.054c-0.714,-2.668 0.87,-5.409 3.537,-6.123c2.673,-0.717 5.41,0.869 6.123,3.538l0.282,1.054c0.714,2.668 -0.87,5.409 -3.537,6.123c-0.434,0.116 -0.868,0.171 -1.296,0.171Zm9.981,37.246c-2.208,0 -4.229,-1.473 -4.828,-3.707l-1.215,-4.539c-0.047,-0.178 -0.084,-0.356 -0.113,-0.533c-0.065,-0.169 -0.122,-0.342 -0.171,-0.522l-5.654,-21.102c-0.714,-2.667 0.868,-5.409 3.536,-6.124c2.674,-0.711 5.409,0.869 6.124,3.536l5.655,21.102c0.046,0.177 0.084,0.355 0.112,0.532c0.065,0.169 0.122,0.344 0.171,0.523l1.216,4.539c0.713,2.668 -0.87,5.409 -3.537,6.124c-0.433,0.115 -0.869,0.171 -1.296,0.171Z" style="fill:#5a439b;fill-rule:nonzero;"/><path d="M518.617,600.457c-0.863,0 -1.704,-0.448 -2.167,-1.25l-5.462,-9.459c-0.093,-0.163 -0.168,-0.332 -0.221,-0.504c-0.121,-0.133 -0.231,-0.28 -0.325,-0.442l-10.922,-18.919c-0.691,-1.196 -0.281,-2.725 0.915,-3.415c1.192,-0.691 2.724,-0.282 3.415,0.915l10.921,18.919c0.095,0.163 0.169,0.332 0.223,0.504c0.121,0.132 0.23,0.28 0.324,0.442l5.462,9.459c0.691,1.195 0.282,2.724 -0.915,3.415c-0.393,0.227 -0.823,0.335 -1.248,0.335Zm11.469,19.865c-0.864,0 -1.704,-0.448 -2.167,-1.251l-0.546,-0.946c-0.69,-1.195 -0.28,-2.725 0.916,-3.414c1.195,-0.693 2.724,-0.28 3.414,0.916l0.546,0.946c0.69,1.195 0.28,2.725 -0.916,3.414c-0.394,0.228 -0.823,0.335 -1.247,0.335Zm22.392,38.783c-0.864,0 -1.705,-0.448 -2.167,-1.25l-5.461,-9.459c-0.094,-0.163 -0.168,-0.332 -0.222,-0.504c-0.121,-0.132 -0.231,-0.28 -0.324,-0.442l-10.923,-18.919c-0.691,-1.195 -0.28,-2.725 0.915,-3.415c1.193,-0.689 2.725,-0.281 3.415,0.915l10.923,18.919c0.094,0.163 0.168,0.332 0.221,0.504c0.122,0.133 0.231,0.28 0.325,0.442l5.461,9.459c0.69,1.196 0.28,2.725 -0.915,3.415c-0.394,0.228 -0.824,0.335 -1.248,0.335Zm11.427,19.793c-0.864,0 -1.705,-0.448 -2.168,-1.251l-0.504,-0.874c-0.689,-1.196 -0.279,-2.725 0.917,-3.415c1.196,-0.689 2.725,-0.28 3.415,0.917l0.504,0.874c0.69,1.197 0.28,2.726 -0.917,3.415c-0.393,0.227 -0.823,0.334 -1.247,0.334Z" style="fill:#5a439b;fill-rule:nonzero;"/><path d="M615.343,600.076c-0.64,0 -1.28,-0.244 -1.768,-0.732l-7.723,-7.724c-0.133,-0.133 -0.248,-0.276 -0.344,-0.429c-0.153,-0.096 -0.296,-0.211 -0.429,-0.343l-15.447,-15.448c-0.977,-0.976 -0.977,-2.558 0,-3.535c0.976,-0.976 2.558,-0.976 3.535,0l15.447,15.447c0.133,0.133 0.247,0.277 0.344,0.429c0.152,0.097 0.296,0.211 0.429,0.344l7.723,7.723c0.977,0.977 0.977,2.559 0,3.536c-0.488,0.488 -1.128,0.732 -1.767,0.732Zm16.22,16.22c-0.64,0 -1.28,-0.244 -1.768,-0.733l-0.773,-0.772c-0.976,-0.977 -0.976,-2.559 0,-3.535c0.977,-0.977 2.559,-0.977 3.536,0l0.772,0.772c0.977,0.977 0.977,2.559 0,3.535c-0.488,0.489 -1.128,0.733 -1.767,0.733Z" style="fill:#5a439b;fill-rule:nonzero;"/><path d="M599.765,496.639c-0.849,0 -1.708,-0.216 -2.495,-0.671l-9.459,-5.462c-0.16,-0.092 -0.312,-0.192 -0.457,-0.298c-0.166,-0.072 -0.33,-0.155 -0.49,-0.248l-18.919,-10.923c-2.391,-1.381 -3.211,-4.439 -1.83,-6.83c1.38,-2.391 4.438,-3.214 6.83,-1.83l18.919,10.923c0.159,0.091 0.312,0.191 0.457,0.298c0.166,0.072 0.329,0.155 0.49,0.248l9.459,5.461c2.391,1.381 3.21,4.439 1.83,6.831c-0.926,1.604 -2.608,2.501 -4.335,2.501Zm19.865,11.468c-0.849,0 -1.709,-0.217 -2.497,-0.672l-0.946,-0.546c-2.391,-1.382 -3.209,-4.441 -1.828,-6.832c1.382,-2.389 4.439,-3.209 6.831,-1.827l0.947,0.547c2.39,1.382 3.209,4.441 1.827,6.831c-0.927,1.603 -2.607,2.499 -4.334,2.499Zm15.679,9.052c-0.849,0 -1.708,-0.215 -2.496,-0.671l-6.218,-3.591c-2.392,-1.381 -3.211,-4.438 -1.83,-6.83c1.381,-2.393 4.44,-3.211 6.83,-1.83l6.218,3.591c2.392,1.381 3.211,4.438 1.831,6.83c-0.926,1.605 -2.608,2.501 -4.335,2.501Z" style="fill:#5a439b;fill-rule:nonzero;"/><path d="M614.89,431.536c-0.171,0 -0.346,-0.022 -0.519,-0.069l-10.551,-2.827c-0.182,-0.049 -0.352,-0.122 -0.507,-0.214c-0.178,0.003 -0.364,-0.019 -0.547,-0.069l-21.102,-5.654c-1.067,-0.286 -1.7,-1.383 -1.414,-2.449c0.285,-1.067 1.38,-1.703 2.449,-1.414l21.102,5.654c0.182,0.049 0.352,0.121 0.507,0.214c0.181,0.008 0.364,0.018 0.547,0.068l10.551,2.827c1.068,0.287 1.7,1.383 1.414,2.45c-0.239,0.893 -1.047,1.483 -1.93,1.483Zm22.156,5.937c-0.171,0 -0.345,-0.023 -0.518,-0.07l-1.054,-0.282c-1.068,-0.285 -1.702,-1.382 -1.415,-2.448c0.285,-1.068 1.38,-1.704 2.448,-1.415l1.055,0.282c1.067,0.285 1.701,1.382 1.415,2.448c-0.24,0.895 -1.047,1.485 -1.931,1.485Zm43.258,11.591c-0.171,0 -0.345,-0.022 -0.519,-0.069l-10.551,-2.827c-0.183,-0.049 -0.353,-0.122 -0.508,-0.215c-0.18,0.003 -0.365,-0.019 -0.546,-0.068l-21.102,-5.655c-1.067,-0.286 -1.7,-1.382 -1.414,-2.449c0.285,-1.066 1.377,-1.702 2.449,-1.414l21.102,5.654c0.183,0.049 0.353,0.122 0.509,0.215c0.166,0.004 0.362,0.02 0.546,0.069l10.55,2.827c1.068,0.286 1.701,1.383 1.414,2.449c-0.239,0.893 -1.046,1.483 -1.93,1.483Zm22.156,5.937c-0.172,0 -0.346,-0.023 -0.52,-0.07l-1.054,-0.283c-1.067,-0.286 -1.699,-1.383 -1.413,-2.45c0.287,-1.067 1.386,-1.699 2.45,-1.413l1.055,0.283c1.066,0.286 1.699,1.384 1.413,2.45c-0.241,0.894 -1.048,1.483 -1.931,1.483Zm27.259,7.304c-0.171,0 -0.345,-0.023 -0.519,-0.07l-16.708,-4.476c-1.067,-0.286 -1.7,-1.382 -1.414,-2.45c0.285,-1.066 1.375,-1.705 2.449,-1.414l16.708,4.477c1.068,0.286 1.701,1.382 1.414,2.449c-0.239,0.894 -1.047,1.484 -1.93,1.484Z" style="fill:#5a439b;fill-rule:nonzero;"/><path d="M610.078,241.302c-0.864,0 -1.704,-0.449 -2.167,-1.251c-0.69,-1.196 -0.28,-2.725 0.916,-3.415l0.946,-0.546c1.196,-0.691 2.724,-0.28 3.415,0.917c0.69,1.195 0.28,2.724 -0.917,3.414l-0.946,0.546c-0.393,0.227 -0.823,0.335 -1.247,0.335Zm-48.243,27.854c-0.863,0 -1.704,-0.449 -2.167,-1.251c-0.69,-1.196 -0.28,-2.724 0.915,-3.415l18.919,-10.923c0.162,-0.094 0.331,-0.167 0.503,-0.221c0.133,-0.122 0.281,-0.231 0.443,-0.325l9.459,-5.462c1.194,-0.688 2.725,-0.281 3.415,0.915c0.691,1.196 0.281,2.725 -0.915,3.415l-9.459,5.462c-0.162,0.094 -0.331,0.167 -0.503,0.221c-0.132,0.122 -0.281,0.232 -0.443,0.325l-18.919,10.923c-0.394,0.228 -0.823,0.336 -1.248,0.336Z" style="fill:#5a439b;fill-rule:nonzero;"/><path d="M571.667,188.934c-1.262,0 -2.524,-0.474 -3.497,-1.426c-1.974,-1.931 -2.008,-5.097 -0.076,-7.071l15.278,-15.613c0.129,-0.133 0.265,-0.257 0.404,-0.372c0.112,-0.141 0.232,-0.278 0.361,-0.409l7.639,-7.807c1.931,-1.974 5.097,-2.008 7.071,-0.076c1.973,1.931 2.007,5.097 0.076,7.07l-7.64,7.807c-0.129,0.132 -0.264,0.256 -0.404,0.371c-0.111,0.141 -0.232,0.278 -0.36,0.41l-15.279,15.613c-0.978,1.001 -2.275,1.503 -3.573,1.503Zm-8.403,8.588c-1.262,0 -2.524,-0.474 -3.496,-1.426c-1.975,-1.931 -2.009,-5.096 -0.079,-7.07l0.764,-0.781c1.931,-1.976 5.097,-2.009 7.07,-0.078c1.975,1.93 2.009,5.096 0.079,7.07l-0.764,0.781c-0.98,1.001 -2.276,1.504 -3.574,1.504Zm-38.962,39.815c-1.263,0 -2.526,-0.475 -3.497,-1.427c-1.974,-1.931 -2.008,-5.097 -0.076,-7.07l15.279,-15.614c0.128,-0.131 0.263,-0.254 0.401,-0.369c0.112,-0.142 0.233,-0.28 0.362,-0.412l7.64,-7.806c1.932,-1.975 5.097,-2.008 7.07,-0.077c1.974,1.931 2.008,5.097 0.077,7.071l-7.64,7.806c-0.129,0.132 -0.263,0.255 -0.401,0.369c-0.113,0.143 -0.233,0.28 -0.363,0.412l-15.279,15.614c-0.979,1.001 -2.275,1.503 -3.573,1.503Z" style="fill:#5a439b;fill-rule:nonzero;"/><path d="M580.515,35.478c-0.426,0 -0.858,-0.109 -1.253,-0.338c-1.195,-0.693 -1.601,-2.223 -0.908,-3.417l0.439,-0.756c0.691,-1.195 2.221,-1.601 3.417,-0.908c1.194,0.693 1.601,2.223 0.907,3.417l-0.438,0.756c-0.464,0.799 -1.303,1.246 -2.164,1.246Zm-27.963,48.18c-0.427,0 -0.859,-0.109 -1.253,-0.338c-1.195,-0.693 -1.601,-2.223 -0.907,-3.417l10.965,-18.894c0.094,-0.163 0.204,-0.31 0.326,-0.442c0.054,-0.172 0.128,-0.341 0.222,-0.503l5.484,-9.447c0.693,-1.195 2.225,-1.601 3.417,-0.907c1.194,0.693 1.6,2.223 0.907,3.417l-5.484,9.447c-0.093,0.162 -0.203,0.309 -0.325,0.441c-0.054,0.172 -0.128,0.341 -0.222,0.503l-10.966,18.894c-0.464,0.8 -1.303,1.246 -2.164,1.246Zm-6.031,10.392c-0.426,0 -0.858,-0.109 -1.253,-0.338c-1.195,-0.693 -1.601,-2.223 -0.908,-3.417l0.548,-0.945c0.694,-1.194 2.221,-1.601 3.417,-0.908c1.195,0.693 1.601,2.223 0.907,3.417l-0.547,0.945c-0.464,0.799 -1.303,1.246 -2.164,1.246Zm-27.964,48.179c-0.427,0 -0.859,-0.109 -1.252,-0.338c-1.195,-0.693 -1.602,-2.223 -0.909,-3.417l10.967,-18.894c0.094,-0.162 0.203,-0.31 0.325,-0.441c0.055,-0.173 0.128,-0.341 0.223,-0.504l5.484,-9.447c0.693,-1.195 2.225,-1.599 3.417,-0.907c1.194,0.693 1.6,2.223 0.907,3.417l-5.484,9.447c-0.093,0.162 -0.203,0.309 -0.325,0.441c-0.055,0.173 -0.128,0.341 -0.222,0.504l-10.966,18.894c-0.464,0.799 -1.303,1.245 -2.165,1.245Z" style="fill:#5a439b;fill-rule:nonzero;"/><path d="M455.406,111.529c-0.215,0 -0.432,-0.028 -0.649,-0.086c-1.333,-0.357 -2.125,-1.728 -1.768,-3.062l5.655,-21.101c0.048,-0.182 0.116,-0.353 0.2,-0.513c0.008,-0.18 0.035,-0.361 0.083,-0.542l2.827,-10.55c0.358,-1.335 1.734,-2.122 3.062,-1.768c1.333,0.357 2.125,1.728 1.768,3.062l-2.827,10.55c-0.049,0.181 -0.116,0.353 -0.2,0.513c-0.008,0.18 -0.036,0.361 -0.083,0.542l-5.655,21.101c-0.299,1.117 -1.309,1.854 -2.413,1.854Zm-3.109,11.605c-0.215,0 -0.432,-0.027 -0.649,-0.085c-1.334,-0.357 -2.125,-1.728 -1.768,-3.062l0.282,-1.055c0.358,-1.335 1.734,-2.122 3.062,-1.768c1.334,0.357 2.125,1.727 1.768,3.061l-0.282,1.055c-0.299,1.117 -1.31,1.854 -2.413,1.854Zm-14.418,53.809c-0.215,0 -0.433,-0.028 -0.65,-0.086c-1.333,-0.357 -2.125,-1.728 -1.767,-3.062l5.654,-21.101c0.049,-0.181 0.116,-0.352 0.199,-0.512c0.007,-0.18 0.035,-0.362 0.083,-0.543l2.828,-10.551c0.358,-1.334 1.734,-2.12 3.062,-1.768c1.333,0.358 2.125,1.729 1.768,3.062l-2.827,10.551c-0.049,0.181 -0.117,0.352 -0.2,0.511c-0.007,0.18 -0.034,0.362 -0.083,0.544l-5.654,21.101c-0.3,1.117 -1.31,1.854 -2.413,1.854Z" style="fill:#5a439b;fill-rule:nonzero;"/><path d="M307.601,78.255c-1.104,0 -2.115,-0.737 -2.414,-1.854l-5.654,-21.101c-0.048,-0.181 -0.075,-0.363 -0.083,-0.543c-0.083,-0.16 -0.151,-0.331 -0.2,-0.512l-2.827,-10.551c-0.357,-1.333 0.434,-2.704 1.768,-3.062c1.337,-0.355 2.705,0.435 3.062,1.768l2.828,10.551c0.048,0.181 0.075,0.363 0.083,0.543c0.083,0.16 0.15,0.331 0.199,0.512l5.654,21.101c0.357,1.334 -0.434,2.705 -1.768,3.062c-0.217,0.058 -0.435,0.086 -0.648,0.086Zm3.109,11.606c-1.104,0 -2.114,-0.737 -2.413,-1.854l-0.283,-1.055c-0.357,-1.334 0.435,-2.705 1.768,-3.062c1.336,-0.355 2.705,0.435 3.062,1.768l0.283,1.055c0.357,1.334 -0.435,2.705 -1.768,3.062c-0.217,0.058 -0.435,0.086 -0.649,0.086Zm14.418,53.808c-1.104,0 -2.114,-0.737 -2.413,-1.854l-5.654,-21.101c-0.048,-0.181 -0.076,-0.364 -0.083,-0.543c-0.083,-0.16 -0.151,-0.331 -0.2,-0.512l-2.827,-10.551c-0.357,-1.333 0.434,-2.704 1.768,-3.062c1.336,-0.354 2.705,0.435 3.062,1.768l2.827,10.551c0.049,0.181 0.076,0.363 0.084,0.543c0.083,0.159 0.15,0.331 0.199,0.512l5.654,21.101c0.357,1.334 -0.435,2.705 -1.768,3.062c-0.217,0.058 -0.435,0.086 -0.649,0.086Zm3.11,11.605c-1.104,0 -2.113,-0.736 -2.413,-1.853l-0.283,-1.054c-0.357,-1.334 0.434,-2.705 1.768,-3.062c1.335,-0.357 2.704,0.433 3.062,1.767l0.282,1.054c0.358,1.334 -0.433,2.705 -1.767,3.062c-0.217,0.058 -0.435,0.086 -0.649,0.086Zm14.418,53.809c-1.104,0 -2.114,-0.736 -2.413,-1.854l-5.655,-21.101c-0.048,-0.181 -0.075,-0.363 -0.083,-0.543c-0.083,-0.159 -0.151,-0.331 -0.199,-0.512l-2.827,-10.551c-0.357,-1.333 0.435,-2.704 1.768,-3.062c1.337,-0.356 2.705,0.435 3.062,1.768l2.827,10.551c0.048,0.181 0.075,0.363 0.083,0.543c0.083,0.159 0.151,0.331 0.199,0.512l5.655,21.101c0.357,1.334 -0.434,2.705 -1.768,3.062c-0.217,0.058 -0.435,0.086 -0.649,0.086Z" style="fill:#5a439b;fill-rule:nonzero;"/></g><defs><linearGradient id="_Linear1" x1="0" y1="0" x2="1" y2="0" gradientUnits="userSpaceOnUse" gradientTransform="matrix(312.03,81.008,-81.008,312.03,238.233,306.206)"><stop offset="0" style="stop-color:#f9ef49;stop-opacity:1"/><stop offset="1" style="stop-color:#fad735;stop-opacity:1"/></linearGradient><linearGradient id="_Linear2" x1="0" y1="0" x2="1" y2="0" gradientUnits="userSpaceOnUse" gradientTransform="matrix(303.03,177.017,-177.017,303.03,243.314,369.728)"><stop offset="0" style="stop-color:#f9ef49;stop-opacity:1"/><stop offset="1" style="stop-color:#fad735;stop-opacity:1"/></linearGradient><linearGradient id="_Linear3" x1="0" y1="0" x2="1" y2="0" gradientUnits="userSpaceOnUse" gradientTransform="matrix(65.7539,0,0,65.7539,610.833,105.073)"><stop offset="0" style="stop-color:#f9ef49;stop-opacity:1"/><stop offset="1" style="stop-color:#fad735;stop-opacity:1"/></linearGradient><linearGradient id="_Linear4" x1="0" y1="0" x2="1" y2="0" gradientUnits="userSpaceOnUse" gradientTransform="matrix(46.495,46.495,-46.495,46.495,98.7361,65.6607)"><stop offset="0" style="stop-color:#f9ef49;stop-opacity:1"/><stop offset="1" style="stop-color:#fad735;stop-opacity:1"/></linearGradient><linearGradient id="_Linear5" x1="0" y1="0" x2="1" y2="0" gradientUnits="userSpaceOnUse" gradientTransform="matrix(89.815,0,0,89.815,341.054,673.377)"><stop offset="0" style="stop-color:#f9ef49;stop-opacity:1"/><stop offset="1" style="stop-color:#fad735;stop-opacity:1"/></linearGradient><linearGradient id="_Linear6" x1="0" y1="0" x2="1" y2="0" gradientUnits="userSpaceOnUse" gradientTransform="matrix(117.057,0,0,117.057,643.303,548.599)"><stop offset="0" style="stop-color:#f9ef49;stop-opacity:1"/><stop offset="1" style="stop-color:#fad735;stop-opacity:1"/></linearGradient><linearGradient id="_Linear7" x1="0" y1="0" x2="1" y2="0" gradientUnits="userSpaceOnUse" gradientTransform="matrix(25.7545,0,0,25.7545,607.987,360.763)"><stop offset="0" style="stop-color:#f9ef49;stop-opacity:1"/><stop offset="1" style="stop-color:#fad735;stop-opacity:1"/></linearGradient><linearGradient id="_Linear8" x1="0" y1="0" x2="1" y2="0" gradientUnits="userSpaceOnUse" gradientTransform="matrix(18.1313,0,0,18.1313,720.653,239.79)"><stop offset="0" style="stop-color:#f9ef49;stop-opacity:1"/><stop offset="1" style="stop-color:#fad735;stop-opacity:1"/></linearGradient><linearGradient id="_Linear9" x1="0" y1="0" x2="1" y2="0" gradientUnits="userSpaceOnUse" gradientTransform="matrix(18.1312,0,0,18.1312,279.173,9.57763)"><stop offset="0" style="stop-color:#f9ef49;stop-opacity:1"/><stop offset="1" style="stop-color:#fad735;stop-opacity:1"/></linearGradient></defs></svg>